<mxfile host="app.diagrams.net" modified="2021-02-19T11:06:55.153Z" agent="5.0 (Macintosh; Intel Mac OS X 10_15_3) AppleWebKit/537.36 (KHTML, like Gecko) Chrome/88.0.4324.150 Safari/537.36" etag="r4Hf0f0_qb5XzlK8_IKr" version="14.2.9" type="github">
  <diagram id="ejlPTIvOCTzwj969W6Wb" name="Page-1">
    <mxGraphModel dx="946" dy="536" grid="0" gridSize="10" guides="1" tooltips="1" connect="1" arrows="1" fold="1" page="1" pageScale="1" pageWidth="827" pageHeight="1169" math="0" shadow="0">
      <root>
        <mxCell id="0" />
        <mxCell id="1" parent="0" />
        <mxCell id="bumcUbIlbm1woRO7Ocf9-4" value="&lt;span style=&quot;font-family: &amp;quot;source code pro&amp;quot;, &amp;quot;dejavu sans mono&amp;quot;, &amp;quot;ubuntu mono&amp;quot;, &amp;quot;anonymous pro&amp;quot;, &amp;quot;droid sans mono&amp;quot;, menlo, monaco, consolas, inconsolata, courier, monospace, &amp;quot;pingfang sc&amp;quot;, &amp;quot;microsoft yahei&amp;quot;, sans-serif; font-size: 17px; background-color: rgb(249, 242, 244);&quot;&gt;获取到一帧图像&lt;br style=&quot;font-size: 17px;&quot;&gt;&lt;/span&gt;" style="rounded=1;whiteSpace=wrap;html=1;fontSize=17;glass=0;strokeWidth=1;shadow=0;" parent="1" vertex="1">
          <mxGeometry x="200" y="90" width="140" height="30" as="geometry" />
        </mxCell>
        <mxCell id="bumcUbIlbm1woRO7Ocf9-13" value="否，获取下一帧" style="edgeStyle=orthogonalEdgeStyle;rounded=0;orthogonalLoop=1;jettySize=auto;html=1;exitX=1;exitY=0.5;exitDx=0;exitDy=0;entryX=1;entryY=0.25;entryDx=0;entryDy=0;fontSize=15;" parent="1" source="bumcUbIlbm1woRO7Ocf9-8" target="bumcUbIlbm1woRO7Ocf9-4" edge="1">
          <mxGeometry x="0.024" y="-30" relative="1" as="geometry">
            <Array as="points">
              <mxPoint x="410" y="240" />
              <mxPoint x="410" y="105" />
              <mxPoint x="340" y="105" />
            </Array>
            <mxPoint as="offset" />
          </mxGeometry>
        </mxCell>
        <mxCell id="bumcUbIlbm1woRO7Ocf9-11" value="获取二维码内容" style="rounded=1;whiteSpace=wrap;html=1;fontSize=15;glass=0;strokeWidth=1;shadow=0;" parent="1" vertex="1">
          <mxGeometry x="200" y="310" width="140" height="30" as="geometry" />
        </mxCell>
        <mxCell id="bumcUbIlbm1woRO7Ocf9-9" value="&lt;span style=&quot;font-size: 17px ; background-color: rgb(248 , 249 , 250)&quot;&gt;解码&lt;/span&gt;" style="edgeStyle=orthogonalEdgeStyle;rounded=0;orthogonalLoop=1;jettySize=auto;html=1;exitX=0.5;exitY=1;exitDx=0;exitDy=0;entryX=0.5;entryY=0;entryDx=0;entryDy=0;" parent="1" source="bumcUbIlbm1woRO7Ocf9-4" target="bumcUbIlbm1woRO7Ocf9-8" edge="1">
          <mxGeometry relative="1" as="geometry">
            <mxPoint x="270" y="180" as="sourcePoint" />
          </mxGeometry>
        </mxCell>
        <mxCell id="bumcUbIlbm1woRO7Ocf9-12" value="是" style="edgeStyle=orthogonalEdgeStyle;rounded=0;orthogonalLoop=1;jettySize=auto;html=1;exitX=0.5;exitY=1;exitDx=0;exitDy=0;entryX=0.5;entryY=0;entryDx=0;entryDy=0;" parent="1" source="bumcUbIlbm1woRO7Ocf9-8" target="bumcUbIlbm1woRO7Ocf9-11" edge="1">
          <mxGeometry relative="1" as="geometry" />
        </mxCell>
        <mxCell id="bumcUbIlbm1woRO7Ocf9-8" value="是否成功" style="rhombus;whiteSpace=wrap;html=1;fontSize=14;" parent="1" vertex="1">
          <mxGeometry x="230" y="200" width="80" height="80" as="geometry" />
        </mxCell>
        <mxCell id="bumcUbIlbm1woRO7Ocf9-36" value="&lt;span style=&quot;font-size: 17px ; background-color: rgb(248 , 249 , 250)&quot;&gt;解码&lt;/span&gt;" style="edgeStyle=orthogonalEdgeStyle;rounded=0;orthogonalLoop=1;jettySize=auto;html=1;exitX=0.5;exitY=1;exitDx=0;exitDy=0;entryX=0.5;entryY=0;entryDx=0;entryDy=0;" parent="1" source="bumcUbIlbm1woRO7Ocf9-23" edge="1" target="bumcUbIlbm1woRO7Ocf9-30">
          <mxGeometry relative="1" as="geometry">
            <mxPoint x="328" y="438" as="targetPoint" />
          </mxGeometry>
        </mxCell>
        <mxCell id="iTjfjuh6w6Pmdr9m70sK-2" value="获取下一帧" style="edgeStyle=orthogonalEdgeStyle;rounded=0;orthogonalLoop=1;jettySize=auto;html=1;exitX=0.25;exitY=1;exitDx=0;exitDy=0;entryX=0.5;entryY=0;entryDx=0;entryDy=0;fontSize=16;" edge="1" parent="1" source="bumcUbIlbm1woRO7Ocf9-23" target="bumcUbIlbm1woRO7Ocf9-39">
          <mxGeometry relative="1" as="geometry">
            <Array as="points">
              <mxPoint x="293" y="420" />
              <mxPoint x="190" y="420" />
            </Array>
          </mxGeometry>
        </mxCell>
        <mxCell id="bumcUbIlbm1woRO7Ocf9-23" value="&lt;span style=&quot;font-family: &amp;quot;source code pro&amp;quot;, &amp;quot;dejavu sans mono&amp;quot;, &amp;quot;ubuntu mono&amp;quot;, &amp;quot;anonymous pro&amp;quot;, &amp;quot;droid sans mono&amp;quot;, menlo, monaco, consolas, inconsolata, courier, monospace, &amp;quot;pingfang sc&amp;quot;, &amp;quot;microsoft yahei&amp;quot;, sans-serif; font-size: 16px; background-color: rgb(249, 242, 244);&quot;&gt;获取到一帧图像&lt;br style=&quot;font-size: 16px;&quot;&gt;&lt;/span&gt;" style="rounded=1;whiteSpace=wrap;html=1;fontSize=16;glass=0;strokeWidth=1;shadow=0;" parent="1" vertex="1">
          <mxGeometry x="258" y="378" width="140" height="30" as="geometry" />
        </mxCell>
        <mxCell id="bumcUbIlbm1woRO7Ocf9-25" value="&lt;font style=&quot;font-size: 15px&quot;&gt;否，获取下一帧&lt;/font&gt;" style="edgeStyle=orthogonalEdgeStyle;rounded=0;orthogonalLoop=1;jettySize=auto;html=1;exitX=1;exitY=0.5;exitDx=0;exitDy=0;entryX=1;entryY=0.25;entryDx=0;entryDy=0;" parent="1" source="bumcUbIlbm1woRO7Ocf9-30" target="bumcUbIlbm1woRO7Ocf9-23" edge="1">
          <mxGeometry relative="1" as="geometry">
            <Array as="points">
              <mxPoint x="468" y="528" />
              <mxPoint x="468" y="393" />
              <mxPoint x="398" y="393" />
            </Array>
          </mxGeometry>
        </mxCell>
        <mxCell id="bumcUbIlbm1woRO7Ocf9-26" value="获取二维码内容" style="rounded=1;whiteSpace=wrap;html=1;fontSize=16;glass=0;strokeWidth=1;shadow=0;" parent="1" vertex="1">
          <mxGeometry x="258" y="598" width="140" height="30" as="geometry" />
        </mxCell>
        <mxCell id="bumcUbIlbm1woRO7Ocf9-29" value="是" style="edgeStyle=orthogonalEdgeStyle;rounded=0;orthogonalLoop=1;jettySize=auto;html=1;exitX=0.5;exitY=1;exitDx=0;exitDy=0;entryX=0.5;entryY=0;entryDx=0;entryDy=0;" parent="1" source="bumcUbIlbm1woRO7Ocf9-30" target="bumcUbIlbm1woRO7Ocf9-26" edge="1">
          <mxGeometry relative="1" as="geometry" />
        </mxCell>
        <mxCell id="bumcUbIlbm1woRO7Ocf9-30" value="是否成功" style="rhombus;whiteSpace=wrap;html=1;fontSize=15;" parent="1" vertex="1">
          <mxGeometry x="288" y="488" width="80" height="80" as="geometry" />
        </mxCell>
        <mxCell id="bumcUbIlbm1woRO7Ocf9-42" style="edgeStyle=orthogonalEdgeStyle;rounded=0;orthogonalLoop=1;jettySize=auto;html=1;exitX=0.5;exitY=1;exitDx=0;exitDy=0;entryX=0.5;entryY=0;entryDx=0;entryDy=0;fontSize=16;" parent="1" source="bumcUbIlbm1woRO7Ocf9-39" target="bumcUbIlbm1woRO7Ocf9-41" edge="1">
          <mxGeometry relative="1" as="geometry" />
        </mxCell>
        <mxCell id="bumcUbIlbm1woRO7Ocf9-43" value="是" style="edgeLabel;html=1;align=center;verticalAlign=middle;resizable=0;points=[];" parent="bumcUbIlbm1woRO7Ocf9-42" vertex="1" connectable="0">
          <mxGeometry x="-0.2143" y="1" relative="1" as="geometry">
            <mxPoint as="offset" />
          </mxGeometry>
        </mxCell>
        <mxCell id="bumcUbIlbm1woRO7Ocf9-44" style="edgeStyle=orthogonalEdgeStyle;rounded=0;orthogonalLoop=1;jettySize=auto;html=1;exitX=0;exitY=0.5;exitDx=0;exitDy=0;entryX=0;entryY=0.5;entryDx=0;entryDy=0;" parent="1" source="bumcUbIlbm1woRO7Ocf9-39" target="bumcUbIlbm1woRO7Ocf9-23" edge="1">
          <mxGeometry relative="1" as="geometry" />
        </mxCell>
        <mxCell id="bumcUbIlbm1woRO7Ocf9-45" value="否，获取下一帧" style="edgeLabel;html=1;align=center;verticalAlign=middle;resizable=0;points=[];fontSize=16;" parent="bumcUbIlbm1woRO7Ocf9-44" vertex="1" connectable="0">
          <mxGeometry x="-0.489" y="-2" relative="1" as="geometry">
            <mxPoint x="-23" y="-2" as="offset" />
          </mxGeometry>
        </mxCell>
        <mxCell id="bumcUbIlbm1woRO7Ocf9-39" value="解码是否&lt;br&gt;成功" style="rhombus;whiteSpace=wrap;html=1;" parent="1" vertex="1">
          <mxGeometry x="150" y="440" width="80" height="80" as="geometry" />
        </mxCell>
        <mxCell id="bumcUbIlbm1woRO7Ocf9-41" value="&lt;span style=&quot;font-size: 16px&quot;&gt;获取二维码内容&lt;/span&gt;" style="rounded=1;whiteSpace=wrap;html=1;fontSize=17;glass=0;strokeWidth=1;shadow=0;" parent="1" vertex="1">
          <mxGeometry x="120" y="540" width="140" height="30" as="geometry" />
        </mxCell>
      </root>
    </mxGraphModel>
  </diagram>
</mxfile>
